<svg width="87" height="20" viewBox="0 0 87 20" fill="none" xmlns="http://www.w3.org/2000/svg">
<g clip-path="url(#clip0_67_1838)">
<path d="M6 7L7.545 10.13L11 10.635L8.5 13.07L9.09 16.51L6 14.885L2.91 16.51L3.5 13.07L1 10.635L4.455 10.13L6 7Z" fill="#FFBE00" stroke="#FFBE00" stroke-linecap="round" stroke-linejoin="round"/>
</g>
<g clip-path="url(#clip1_67_1838)">
<path d="M20 7L21.545 10.13L25 10.635L22.5 13.07L23.09 16.51L20 14.885L16.91 16.51L17.5 13.07L15 10.635L18.455 10.13L20 7Z" fill="#FFBE00" stroke="#FFBE00" stroke-linecap="round" stroke-linejoin="round"/>
</g>
<g clip-path="url(#clip2_67_1838)">
<path d="M34 7L35.545 10.13L39 10.635L36.5 13.07L37.09 16.51L34 14.885L30.91 16.51L31.5 13.07L29 10.635L32.455 10.13L34 7Z" fill="#FFBE00" stroke="#FFBE00" stroke-linecap="round" stroke-linejoin="round"/>
</g>
<g clip-path="url(#clip3_67_1838)">
<path d="M48 7L49.545 10.13L53 10.635L50.5 13.07L51.09 16.51L48 14.885L44.91 16.51L45.5 13.07L43 10.635L46.455 10.13L48 7Z" stroke="#FFBE00" stroke-linecap="round" stroke-linejoin="round"/>
</g>
<g clip-path="url(#clip4_67_1838)">
<path d="M62 7L63.545 10.13L67 10.635L64.5 13.07L65.09 16.51L62 14.885L58.91 16.51L59.5 13.07L57 10.635L60.455 10.13L62 7Z" stroke="#FFBE00" stroke-linecap="round" stroke-linejoin="round"/>
</g>
<path d="M74.676 17.16C74.348 16.56 74.076 15.972 73.86 15.396C73.644 14.828 73.484 14.252 73.38 13.668C73.284 13.084 73.236 12.476 73.236 11.844C73.236 11.212 73.284 10.604 73.38 10.02C73.484 9.436 73.644 8.86 73.86 8.292C74.076 7.716 74.348 7.132 74.676 6.54H75.492C75.084 7.436 74.772 8.324 74.556 9.204C74.348 10.076 74.244 10.956 74.244 11.844C74.244 12.724 74.348 13.608 74.556 14.496C74.772 15.376 75.084 16.264 75.492 17.16H74.676ZM79.3723 15.108C78.8043 15.108 78.2603 15.02 77.7403 14.844C77.2203 14.668 76.7843 14.416 76.4323 14.088L76.8043 13.32C77.1963 13.64 77.6003 13.872 78.0163 14.016C78.4323 14.16 78.8803 14.232 79.3603 14.232C79.9923 14.232 80.4723 14.1 80.8003 13.836C81.1283 13.564 81.2923 13.168 81.2923 12.648C81.2923 12.152 81.1243 11.776 80.7883 11.52C80.4523 11.256 79.9603 11.124 79.3123 11.124H78.0403V10.296H79.2283C79.7883 10.296 80.2323 10.152 80.5603 9.864C80.8883 9.576 81.0523 9.184 81.0523 8.688C81.0523 8.24 80.9003 7.9 80.5963 7.668C80.3003 7.428 79.8723 7.308 79.3123 7.308C78.4003 7.308 77.6123 7.632 76.9483 8.28L76.5763 7.5C76.9043 7.164 77.3163 6.904 77.8123 6.72C78.3083 6.528 78.8283 6.432 79.3723 6.432C80.2043 6.432 80.8563 6.624 81.3283 7.008C81.8003 7.392 82.0363 7.924 82.0363 8.604C82.0363 9.124 81.8883 9.572 81.5923 9.948C81.2963 10.316 80.8963 10.568 80.3923 10.704V10.572C80.9923 10.668 81.4563 10.908 81.7843 11.292C82.1123 11.668 82.2763 12.144 82.2763 12.72C82.2763 13.456 82.0163 14.04 81.4963 14.472C80.9843 14.896 80.2763 15.108 79.3723 15.108ZM84.1436 17.16H83.3396C83.7476 16.264 84.0556 15.376 84.2636 14.496C84.4796 13.616 84.5876 12.736 84.5876 11.856C84.5876 10.968 84.4796 10.084 84.2636 9.204C84.0556 8.324 83.7476 7.436 83.3396 6.54H84.1436C84.4876 7.132 84.7636 7.716 84.9716 8.292C85.1876 8.86 85.3436 9.44 85.4396 10.032C85.5436 10.616 85.5956 11.224 85.5956 11.856C85.5956 12.48 85.5436 13.088 85.4396 13.68C85.3436 14.264 85.1876 14.84 84.9716 15.408C84.7636 15.984 84.4876 16.568 84.1436 17.16Z" fill="#626262"/>
<defs>
<clipPath id="clip0_67_1838">
<rect width="12" height="12" fill="white" transform="translate(0 6)"/>
</clipPath>
<clipPath id="clip1_67_1838">
<rect width="12" height="12" fill="white" transform="translate(14 6)"/>
</clipPath>
<clipPath id="clip2_67_1838">
<rect width="12" height="12" fill="white" transform="translate(28 6)"/>
</clipPath>
<clipPath id="clip3_67_1838">
<rect width="12" height="12" fill="white" transform="translate(42 6)"/>
</clipPath>
<clipPath id="clip4_67_1838">
<rect width="12" height="12" fill="white" transform="translate(56 6)"/>
</clipPath>
</defs>
</svg>
